<svg width="16" height="16" viewBox="0 0 16 16" fill="none" xmlns="http://www.w3.org/2000/svg">
    <path d="M8.87922 8.2133C10.408 9.23873 12.4971 9.07599 13.848 7.72508C15.384 6.18914 15.384 3.69888 13.848 2.16294C12.3121 0.627001 9.82185 0.627001 8.28591 2.16294C6.99005 3.45881 6.7875 5.43397 7.67826 6.94219L6.60121 8.01925C6.59483 8.01727 6.58837 8.01541 6.58184 8.01365L4.93682 7.57287C4.57126 7.47492 4.23675 7.80943 4.3347 8.17499L4.77548 9.82001C4.77723 9.82654 4.7791 9.833 4.78108 9.83938L3.82014 10.8003C3.81376 10.7983 3.80731 10.7965 3.80077 10.7947L2.15575 10.3539C1.79019 10.256 1.45568 10.5905 1.55363 10.9561L1.99442 12.6011C1.99617 12.6076 1.99803 12.6141 2.00001 12.6204L1.25599 13.3645C0.91467 13.7058 0.91467 14.2592 1.25599 14.6005C1.59731 14.9418 2.1507 14.9418 2.49202 14.6005L8.87922 8.2133ZM12.4575 4.94401C12.0735 5.328 11.451 5.328 11.067 4.94401C10.683 4.56003 10.683 3.93746 11.067 3.55348C11.451 3.16949 12.0735 3.16949 12.4575 3.55348C12.8415 3.93746 12.8415 4.56003 12.4575 4.94401Z"
          fill="#4E6B8C"/>
</svg>
